<svg xmlns="http://www.w3.org/2000/svg" version="1.1" xmlns:xlink="http://www.w3.org/1999/xlink" xmlns:svgjs="http://svgjs.dev/svgjs" width="1500" height="1500" viewBox="0 0 1500 1500"><g transform="matrix(1,0,0,1,0,0)"><svg viewBox="0 0 280 280" data-background-color="#4a5d5e" preserveAspectRatio="xMidYMid meet" height="1500" width="1500" xmlns="http://www.w3.org/2000/svg" xmlns:xlink="http://www.w3.org/1999/xlink"><g id="tight-bounds" transform="matrix(1,0,0,1,0,0)"><svg viewBox="0 0 280 280" height="280" width="280"><g><svg viewBox="0 0 280 280" height="280" width="280"><g><svg viewBox="0 0 280 280" height="280" width="280"><g id="textblocktransform"><svg viewBox="0 0 280 280" height="280" width="280" id="textblock"><g><svg viewBox="0 0 280 280" height="280" width="280"><g transform="matrix(1,0,0,1,90.50252531694167,90.84182542397413)"><svg viewBox="0 0 98.99494936611666 98.31634915205174" height="98.31634915205174" width="98.99494936611666"><g id="icon-0"><svg xmlns="http://www.w3.org/2000/svg" xmlns:xlink="http://www.w3.org/1999/xlink" version="1.1" x="0" y="0" viewBox="0.572 0.9999375304993624 62.428 62.00006246950064" style="enable-background:new 0 0 64 64;" xml:space="preserve" height="98.31634915205174" width="98.99494936611666" class="icon-jxe-0" data-fill-palette-color="accent" id="jxe-0"><g fill="#f8f8ec" data-fill-palette-color="accent"><path d="M63 50.782V43.218L60.264 42.54A14 14 0 0 0 59.536 40.77L60.988 38.36 55.639 33.012 53.229 34.463A14 14 0 0 0 51.46 33.734L50.782 31H43.218L42.54 33.735C41.929 33.94 41.337 34.183 40.771 34.464L38.361 33.013 33.012 38.361 33.544 39.244 27 38.153V37.895A12.06 12.06 0 0 0 32.376 33H34C35.654 33 37 31.654 37 30 38.654 30 40 28.654 40 27V23A3 3 0 0 0 38 20.184V16.85C38 8.11 30.89 1 22.151 1A15.74 15.74 0 0 0 10.944 5.643L10.48 6.105A6.27 6.27 0 0 0 6 12.123V20.184A3 3 0 0 0 4 23V27C4 28.654 5.346 30 7 30H10.395A12.04 12.04 0 0 0 17 37.895V38.153L9.291 39.438A7.01 7.01 0 0 0 3.863 43.951L0.572 53H34.36C34.396 53.076 34.427 53.155 34.464 53.229L33.012 55.639 38.361 60.987 40.771 59.536C41.337 59.816 41.929 60.059 42.54 60.265L43.218 63H50.782L51.46 60.265A14 14 0 0 0 53.229 59.536L55.639 60.987 60.988 55.639 59.536 53.229C59.816 52.664 60.059 52.072 60.264 51.459zM31.879 51H23V44.899A5 5 0 0 0 26.982 40.177L34.189 41.378C34.024 41.757 33.869 42.142 33.736 42.54L31 43.218V50.782zM19 38.605C19.961 38.854 20.963 39 22 39S24.039 38.854 25 38.605V40C25 41.654 23.654 43 22 43S19 41.654 19 40zM34 31H33.3C33.416 30.673 33.517 30.34 33.605 30H35C35 30.552 34.551 31 34 31M38 27C38 27.552 37.551 28 37 28V24H35V28H33.949C33.977 27.669 34 27.338 34 27V22H37C37.551 22 38 22.448 38 23zM7 28C6.449 28 6 27.552 6 27V23C6 22.448 6.449 22 7 22H10V27C10 27.338 10.023 27.669 10.051 28zM10 18V20H8V12.123A4.274 4.274 0 0 1 11.243 7.97L11.512 7.904 12.359 7.057A13.75 13.75 0 0 1 22.151 3C29.787 3 36 9.213 36 16.85V20H34V18H33A13.4 13.4 0 0 1 23.465 14.051L22 12.585 20.536 14.051A13.4 13.4 0 0 1 11 18zM12 27V19.969A15.37 15.37 0 0 0 21.95 15.465L22 15.415 22.05 15.465A15.37 15.37 0 0 0 32 19.969V27A9.9 9.9 0 0 1 31.159 31H25.816A3 3 0 0 0 23 29H21C19.346 29 18 30.346 18 32S19.346 35 21 35H23A3 3 0 0 0 25.816 33H29.981C28.154 35.423 25.262 37 22 37 16.486 37 12 32.514 12 27M24 32C24 32.552 23.551 33 23 33H21A1.001 1.001 0 0 1 21 31H23C23.551 31 24 31.448 24 32M5.743 44.634A5.01 5.01 0 0 1 9.62 41.41L17.018 40.177A5 5 0 0 0 21 44.899V51H10.281L10.97 48.242 9.03 47.758 8.219 51H3.428zM58.678 49.793L58.517 50.347C58.267 51.209 57.93 52.029 57.514 52.783L57.236 53.288 58.468 55.332 55.332 58.469 53.288 57.237 52.783 57.515C52.027 57.931 51.207 58.269 50.347 58.519L49.793 58.679 49.218 61H44.782L44.207 58.678 43.653 58.518C42.793 58.268 41.974 57.93 41.217 57.514L40.712 57.236 38.668 58.468 35.532 55.331 36.764 53.287 36.486 52.782A12 12 0 0 1 35.483 50.346L35.322 49.792 33 49.218V44.782L35.322 44.207 35.483 43.653C35.733 42.791 36.07 41.971 36.486 41.217L36.764 40.712 35.532 38.668 38.668 35.531 40.712 36.763 41.217 36.485A12 12 0 0 1 43.653 35.481L44.207 35.321 44.782 33H49.218L49.793 35.322 50.347 35.482C51.207 35.732 52.026 36.07 52.783 36.486L53.288 36.764 55.332 35.532 58.468 38.669 57.236 40.713 57.514 41.218C57.93 41.972 58.267 42.791 58.517 43.654L58.678 44.208 61 44.782V49.218z" fill="#f8f8ec" data-fill-palette-color="accent"></path><path d="M47 37C41.486 37 37 41.486 37 47S41.486 57 47 57 57 52.514 57 47 52.514 37 47 37M47 55C42.589 55 39 51.411 39 47S42.589 39 47 39 55 42.589 55 47 51.411 55 47 55" fill="#f8f8ec" data-fill-palette-color="accent"></path><path d="M47 41C43.691 41 41 43.691 41 47S43.691 53 47 53V51C44.794 51 43 49.206 43 47S44.794 43 47 43 51 44.794 51 47H53C53 43.691 50.309 41 47 41" fill="#f8f8ec" data-fill-palette-color="accent"></path><circle cx="16" cy="23" r="1.0" fill="#f8f8ec" data-fill-palette-color="accent"></circle><circle cx="28" cy="23" r="1.0" fill="#f8f8ec" data-fill-palette-color="accent"></circle></g></svg></g></svg></g><g id="text-0"><path d="M21.079 89.27l-4.489 12.831 11.001 3.849-1.126 3.218-23.736-8.307 1.126-3.217 10.044 3.515 4.49-12.83-10.044-3.515 1.125-3.217 23.737 8.306-1.126 3.217z" fill="#d2dbc8" data-fill-palette-color="primary"></path><path d="M13.224 71.614l1.532-2.828 2.703 1.465-1.533 2.827zM19.539 75.036l1.532-2.828 16.972 9.198-1.532 2.827z" fill="#d2dbc8" data-fill-palette-color="primary"></path><path d="M43.313 57.257v0c2.711 1.987 4.395 3.956 5.054 5.905 0.658 1.95 0.288 3.88-1.111 5.789v0c-0.864 1.178-1.796 2.004-2.798 2.478-0.997 0.468-2.153 0.598-3.467 0.389v0l-0.018 0.024c0.196 0.144 0.467 0.359 0.811 0.645 0.353 0.284 0.68 0.553 0.98 0.807 0.299 0.244 0.473 0.401 0.523 0.471v0l-1.835 2.503c-0.236-0.215-0.616-0.527-1.139-0.935-0.523-0.408-1.19-0.91-2.003-1.506v0l-18.155-13.308 1.896-2.585 6.095 4.468c0.305 0.224 0.642 0.475 1.008 0.752 0.357 0.279 0.741 0.585 1.151 0.918v0l0.042-0.057c-0.646-1.212-0.895-2.371-0.746-3.478 0.147-1.116 0.649-2.258 1.504-3.425v0c1.443-1.969 3.168-2.931 5.173-2.887 2.001 0.05 4.346 1.06 7.035 3.032zM41.404 60.033v0c-2.176-1.595-3.948-2.45-5.316-2.563-1.358-0.115-2.513 0.477-3.464 1.774v0c-1.068 1.456-1.346 2.883-0.836 4.28 0.506 1.403 1.842 2.897 4.008 4.485v0c2.045 1.499 3.796 2.28 5.252 2.341 1.451 0.057 2.714-0.648 3.789-2.115v0c0.956-1.304 1.163-2.598 0.621-3.884-0.532-1.287-1.884-2.727-4.054-4.318z" fill="#d2dbc8" data-fill-palette-color="primary"></path><path d="M59.901 41.314v0c2.311 2.44 3.616 4.679 3.916 6.715 0.299 2.036-0.411 3.869-2.13 5.496v0c-1.061 1.005-2.126 1.65-3.196 1.937-1.065 0.282-2.225 0.203-3.481-0.238v0l-0.022 0.021c0.167 0.177 0.395 0.436 0.682 0.779 0.297 0.343 0.57 0.666 0.821 0.97 0.25 0.294 0.394 0.479 0.43 0.557v0l-2.254 2.134c-0.194-0.254-0.512-0.629-0.953-1.123-0.441-0.495-1.008-1.109-1.701-1.841v0l-15.479-16.343 2.327-2.204 5.197 5.487c0.26 0.275 0.546 0.582 0.858 0.92 0.302 0.338 0.624 0.708 0.967 1.11v0l0.052-0.049c-0.419-1.308-0.456-2.493-0.112-3.555 0.345-1.072 1.043-2.105 2.094-3.1v0c1.773-1.679 3.641-2.317 5.606-1.915 1.96 0.407 4.086 1.821 6.378 4.242zM57.526 43.704v0c-1.856-1.959-3.446-3.117-4.771-3.474-1.315-0.356-2.557 0.019-3.726 1.126v0c-1.311 1.242-1.84 2.596-1.588 4.062 0.247 1.471 1.294 3.18 3.14 5.129v0c1.744 1.841 3.327 2.922 4.748 3.243 1.417 0.316 2.786-0.152 4.107-1.402v0c1.173-1.111 1.609-2.348 1.306-3.71-0.293-1.362-1.365-3.02-3.216-4.974z" fill="#d2dbc8" data-fill-palette-color="primary"></path><path d="M75.005 43.391v0c-1.629 1.042-3.132 1.397-4.509 1.065-1.371-0.335-2.537-1.255-3.499-2.759v0c-1.079-1.686-1.353-3.333-0.824-4.94 0.535-1.611 2.016-3.236 4.443-4.877v0l3.611-2.394-0.569-0.889c-0.845-1.322-1.73-2.089-2.652-2.301-0.932-0.215-1.999 0.063-3.201 0.831v0c-1.213 0.776-1.963 1.549-2.25 2.319-0.285 0.76-0.196 1.627 0.266 2.599v0l-2.993 1.553c-1.412-3.223-0.172-6.08 3.719-8.568v0c2.045-1.308 3.884-1.822 5.517-1.542 1.629 0.275 3.012 1.301 4.148 3.078v0l4.483 7.007c0.51 0.798 1 1.331 1.469 1.601 0.473 0.275 1.006 0.224 1.599-0.155v0c0.279-0.179 0.552-0.405 0.817-0.68v0l1.077 1.684c-0.287 0.304-0.595 0.589-0.922 0.855-0.322 0.262-0.66 0.506-1.013 0.732v0c-1.003 0.641-1.901 0.843-2.696 0.604-0.791-0.233-1.574-0.892-2.349-1.977v0l-0.094 0.06c0.105 1.683-0.135 3.077-0.72 4.182-0.589 1.099-1.542 2.07-2.858 2.912zM76.293 32.716l-0.853-1.333-2.927 1.957c-1.255 0.811-2.133 1.553-2.634 2.226v0c-0.504 0.668-0.772 1.365-0.805 2.093-0.033 0.727 0.21 1.495 0.728 2.304v0c0.565 0.883 1.24 1.411 2.024 1.584 0.788 0.178 1.621-0.013 2.498-0.575v0c1.003-0.641 1.742-1.431 2.218-2.37v0c0.478-0.948 0.69-1.959 0.637-3.032-0.059-1.07-0.354-2.022-0.886-2.854z" fill="#d2dbc8" data-fill-palette-color="primary"></path><path d="M87.616 23.225v0l4.379 10.296-2.949 1.255-5.945-13.974c-0.442-1.039-0.806-1.869-1.092-2.49-0.28-0.623-0.487-1.042-0.623-1.257v0l2.792-1.187c0.112 0.195 0.242 0.448 0.389 0.76 0.154 0.309 0.319 0.654 0.495 1.035 0.174 0.374 0.353 0.769 0.537 1.183v0l0.056-0.024c0.157-1.515 0.572-2.716 1.244-3.605 0.673-0.889 1.672-1.615 2.998-2.179v0c1.948-0.829 3.588-0.938 4.92-0.329 1.329 0.618 2.456 2.016 3.383 4.195v0l5.034 11.836-2.977 1.267-4.793-11.267c-0.72-1.693-1.497-2.759-2.33-3.198-0.831-0.433-1.918-0.364-3.263 0.208v0c-1.425 0.606-2.342 1.569-2.751 2.89-0.406 1.326-0.241 2.855 0.496 4.585z" fill="#d2dbc8" data-fill-palette-color="primary"></path><path d="M120.074 21.477l-0.05 0.011c-0.426 1.462-1.05 2.567-1.872 3.314-0.828 0.755-1.944 1.292-3.349 1.61v0c-2.065 0.466-3.692 0.293-4.881-0.521-1.187-0.806-2.049-2.394-2.583-4.762v0l-2.834-12.547 3.147-0.71 2.695 11.933c0.425 1.88 1.006 3.09 1.745 3.631 0.738 0.534 1.815 0.64 3.234 0.32v0c1.504-0.34 2.575-1.126 3.211-2.358 0.638-1.226 0.75-2.756 0.337-4.59v0l-2.465-10.914 3.137-0.708 3.345 14.813c0.246 1.088 0.455 1.967 0.626 2.635 0.165 0.67 0.292 1.123 0.38 1.36v0l-2.959 0.668c-0.02-0.058-0.102-0.327-0.244-0.808-0.137-0.482-0.343-1.274-0.62-2.377z" fill="#d2dbc8" data-fill-palette-color="primary"></path><path d="M132.552 13.324v0l0.676 10.04-3.198 0.215-0.995-14.777c-0.045-0.675-0.103-1.386-0.174-2.133-0.064-0.748-0.144-1.529-0.239-2.343v0l3.026-0.204c0.064 0.545 0.117 1.036 0.16 1.474 0.05 0.437 0.092 0.817 0.128 1.14 0.035 0.323 0.06 0.596 0.075 0.819 0.022 0.222 0.036 0.384 0.043 0.485v0l0.071-0.005c0.28-1.185 0.614-2.112 1.002-2.782v0c0.372-0.621 0.816-1.065 1.334-1.33 0.517-0.272 1.17-0.435 1.96-0.488v0c0.439-0.03 0.875 0.002 1.308 0.095v0l0.198 2.935c-0.413-0.087-0.987-0.106-1.723-0.057v0c-1.329 0.089-2.306 0.728-2.931 1.916-0.625 1.194-0.865 2.861-0.721 5z" fill="#d2dbc8" data-fill-palette-color="primary"></path><path d="M143.357 12.046l8.916 0.428-0.137 2.857-8.916-0.427z" fill="#d2dbc8" data-fill-palette-color="primary"></path><path d="M170.54 16.76l-7.653-1.662-2.216 10.2-3.33-0.723 5.338-24.575 11.558 2.511c2.769 0.601 4.769 1.686 5.999 3.254 1.238 1.563 1.618 3.448 1.139 5.656v0c-0.396 1.824-1.262 3.245-2.598 4.263-1.334 1.011-2.971 1.476-4.911 1.393v0l4.679 12.103-3.837-0.833zM178.015 10.733v0c0.311-1.434 0.066-2.629-0.736-3.586-0.809-0.958-2.129-1.636-3.96-2.033v0l-7.891-1.714-1.968 9.061 8.039 1.746c1.751 0.38 3.195 0.265 4.332-0.346 1.136-0.611 1.864-1.654 2.184-3.128z" fill="#d2dbc8" data-fill-palette-color="primary"></path><path d="M187.142 33.649v0c-1.758-0.806-2.87-1.878-3.336-3.215-0.459-1.334-0.317-2.813 0.428-4.435v0c0.835-1.82 2.071-2.941 3.709-3.366 1.644-0.421 3.813-0.055 6.505 1.098v0l3.967 1.742 0.44-0.959c0.654-1.426 0.821-2.585 0.5-3.476-0.324-0.9-1.134-1.647-2.431-2.243v0c-1.309-0.601-2.365-0.813-3.167-0.638-0.793 0.172-1.474 0.715-2.042 1.63v0l-2.925-1.676c1.947-2.931 5.02-3.434 9.218-1.508v0c2.207 1.012 3.634 2.281 4.281 3.805 0.65 1.518 0.535 3.237-0.344 5.155v0l-3.468 7.561c-0.395 0.861-0.579 1.561-0.552 2.102 0.024 0.547 0.356 0.967 0.996 1.26v0c0.301 0.138 0.639 0.245 1.014 0.32v0l-0.833 1.816c-0.411-0.077-0.817-0.181-1.218-0.313-0.395-0.129-0.783-0.281-1.164-0.456v0c-1.082-0.496-1.738-1.143-1.967-1.94-0.232-0.791-0.102-1.806 0.392-3.045v0l-0.101-0.047c-1.358 0.999-2.661 1.551-3.907 1.657-1.243 0.099-2.575-0.177-3.995-0.829zM196.816 28.958l0.66-1.439-3.229-1.403c-1.361-0.617-2.461-0.954-3.298-1.01v0c-0.834-0.063-1.566 0.089-2.195 0.455-0.629 0.366-1.144 0.986-1.545 1.858v0c-0.437 0.953-0.516 1.806-0.236 2.559 0.277 0.759 0.888 1.356 1.835 1.791v0c1.082 0.496 2.146 0.691 3.192 0.583v0c1.055-0.111 2.021-0.479 2.896-1.105 0.869-0.628 1.509-1.391 1.92-2.289z" fill="#d2dbc8" data-fill-palette-color="primary"></path><path d="M213.514 29.277l0.05 0.034c1.277-0.653 2.483-0.954 3.618-0.903 1.131 0.056 2.311 0.503 3.542 1.338v0c1.734 1.178 2.707 2.496 2.918 3.956 0.211 1.459-0.347 3.165-1.672 5.117v0l-7.226 10.642-2.677-1.818 6.878-10.129c0.98-1.444 1.437-2.658 1.37-3.644-0.076-0.984-0.704-1.876-1.885-2.677v0c-1.248-0.847-2.544-1.094-3.888-0.74-1.344 0.354-2.514 1.264-3.509 2.731v0l-6.394 9.416-2.652-1.8 14.879-21.913 2.652 1.8-3.869 5.699c-0.27 0.397-0.561 0.808-0.874 1.233-0.319 0.421-0.594 0.79-0.826 1.107-0.233 0.308-0.378 0.491-0.435 0.551z" fill="#d2dbc8" data-fill-palette-color="primary"></path><path d="M228.961 47.969v0l-8.154 7.663-2.188-2.329 11.067-10.399c0.823-0.773 1.477-1.401 1.96-1.884 0.489-0.478 0.81-0.817 0.965-1.018v0l2.077 2.211c-0.169 0.196-0.387 0.433-0.654 0.711-0.257 0.279-0.532 0.565-0.823 0.857-0.291 0.283-0.567 0.547-0.829 0.793v0l0.042 0.044c1.468-0.433 2.702-0.507 3.703-0.222 1.006 0.28 1.948 0.888 2.828 1.825v0c1 1.065 1.578 2.109 1.733 3.132 0.155 1.014-0.115 2.08-0.81 3.197v0l0.034 0.037c1.405-0.401 2.636-0.454 3.694-0.158 1.067 0.296 2.062 0.935 2.983 1.916v0c1.338 1.424 1.924 2.823 1.757 4.196-0.167 1.373-1.13 2.886-2.89 4.539v0l-9.373 8.808-2.175-2.314 8.923-8.385c1.36-1.278 2.126-2.35 2.296-3.215 0.166-0.861-0.208-1.777-1.12-2.748v0c-0.959-1.02-2.086-1.46-3.382-1.318-1.292 0.146-2.635 0.875-4.03 2.186v0l-8.154 7.662-2.174-2.314 8.923-8.384c1.36-1.278 2.126-2.35 2.296-3.216 0.17-0.856-0.201-1.769-1.113-2.74v0c-0.94-1-2.063-1.43-3.369-1.289-1.31 0.136-2.658 0.855-4.043 2.156z" fill="#d2dbc8" data-fill-palette-color="primary"></path><path d="M240.82 80.951v0c-0.965-1.677-1.249-3.194-0.853-4.554 0.399-1.353 1.373-2.475 2.921-3.366v0c1.735-0.998 3.393-1.195 4.973-0.591 1.584 0.61 3.138 2.166 4.663 4.667v0l2.222 3.719 0.914-0.526c1.36-0.782 2.168-1.63 2.424-2.541 0.258-0.921 0.031-2-0.681-3.237v0c-0.718-1.249-1.455-2.034-2.21-2.356-0.746-0.32-1.616-0.272-2.609 0.143v0l-1.411-3.062c3.286-1.259 6.081 0.114 8.385 4.118v0c1.211 2.104 1.638 3.965 1.281 5.582-0.351 1.614-1.441 2.947-3.27 4v0l-7.21 4.148c-0.821 0.472-1.377 0.936-1.668 1.393-0.297 0.46-0.271 0.994 0.08 1.604v0c0.165 0.287 0.379 0.57 0.641 0.849v0l-1.732 0.996c-0.29-0.301-0.56-0.622-0.811-0.961-0.247-0.334-0.475-0.683-0.684-1.046v0c-0.594-1.032-0.753-1.939-0.477-2.722 0.269-0.779 0.965-1.53 2.086-2.253v0l-0.056-0.097c-1.686 0.026-3.067-0.28-4.144-0.916-1.071-0.64-1.995-1.637-2.774-2.992zM251.422 82.739l1.372-0.79-1.817-3.015c-0.751-1.292-1.451-2.204-2.101-2.736v0c-0.643-0.535-1.327-0.836-2.052-0.902-0.725-0.067-1.504 0.139-2.336 0.618v0c-0.909 0.523-1.467 1.172-1.677 1.948-0.215 0.779-0.063 1.62 0.457 2.523v0c0.594 1.032 1.348 1.807 2.263 2.326v0c0.924 0.522 1.924 0.781 2.999 0.779 1.072-0.008 2.036-0.259 2.892-0.751z" fill="#d2dbc8" data-fill-palette-color="primary"></path><path d="M260.369 94.496v0l-10.491 3.89-1.114-3.006 14.238-5.279c1.059-0.393 1.905-0.717 2.539-0.974 0.636-0.25 1.064-0.438 1.284-0.563v0l1.055 2.844c-0.2 0.103-0.459 0.221-0.778 0.354-0.316 0.139-0.669 0.288-1.057 0.446-0.382 0.156-0.784 0.316-1.207 0.48v0l0.021 0.057c1.505 0.228 2.686 0.699 3.542 1.413 0.856 0.714 1.535 1.746 2.036 3.097v0c0.736 1.985 0.768 3.628 0.097 4.93-0.68 1.298-2.13 2.358-4.349 3.181v0l-12.061 4.472-1.125-3.035 11.48-4.256c1.725-0.639 2.826-1.365 3.304-2.177 0.472-0.81 0.454-1.899-0.054-3.269v0c-0.538-1.452-1.457-2.413-2.757-2.884-1.306-0.468-2.84-0.375-4.603 0.279z" fill="#d2dbc8" data-fill-palette-color="primary"></path><path d="M24.858 193.507l-4.49-12.831-11.002 3.85-1.126-3.217 23.737-8.306 1.125 3.217-10.044 3.515 4.49 12.83 10.044-3.514 1.126 3.217-23.736 8.306-1.126-3.217z" fill="#d2dbc8" data-fill-palette-color="primary"></path><path d="M42.822 196.446l1.532 2.827-2.702 1.465-1.532-2.827zM36.508 199.868l1.532 2.827-16.973 9.198-1.532-2.827z" fill="#d2dbc8" data-fill-palette-color="primary"></path><path d="M43.449 226.743v0c-2.711 1.987-5.095 3.001-7.153 3.042-2.058 0.041-3.786-0.893-5.186-2.802v0c-0.864-1.178-1.371-2.316-1.521-3.413-0.146-1.092 0.078-2.233 0.673-3.424v0l-0.018-0.024c-0.196 0.144-0.483 0.337-0.859 0.579-0.377 0.252-0.732 0.482-1.065 0.692-0.323 0.212-0.525 0.33-0.606 0.357v0l-1.835-2.504c0.276-0.161 0.688-0.429 1.234-0.804 0.547-0.375 1.226-0.861 2.039-1.457v0l18.155-13.308 1.895 2.586-6.095 4.468c-0.305 0.224-0.646 0.469-1.021 0.735-0.373 0.257-0.781 0.53-1.222 0.821v0l0.042 0.057c1.35-0.252 2.53-0.14 3.541 0.335 1.02 0.476 1.958 1.298 2.813 2.465v0c1.443 1.969 1.842 3.903 1.197 5.802-0.65 1.893-2.319 3.826-5.008 5.797zM41.376 224.087v0c2.176-1.595 3.524-3.028 4.044-4.298 0.518-1.26 0.302-2.54-0.65-3.838v0c-1.068-1.456-2.344-2.151-3.83-2.085-1.49 0.061-3.318 0.885-5.483 2.472v0c-2.045 1.499-3.316 2.934-3.813 4.304-0.491 1.366-0.199 2.783 0.877 4.251v0c0.956 1.304 2.128 1.891 3.517 1.761 1.388-0.12 3.167-0.976 5.338-2.567z" fill="#d2dbc8" data-fill-palette-color="primary"></path><path d="M60.017 242.663v0c-2.311 2.44-4.476 3.865-6.493 4.273-2.017 0.409-3.885-0.201-5.603-1.828v0c-1.061-1.005-1.763-2.033-2.108-3.086-0.339-1.048-0.323-2.211 0.049-3.488v0l-0.022-0.021c-0.167 0.177-0.414 0.418-0.741 0.723-0.326 0.315-0.634 0.606-0.923 0.872-0.28 0.266-0.457 0.419-0.533 0.459v0l-2.254-2.135c0.243-0.208 0.6-0.545 1.07-1.012 0.47-0.467 1.052-1.067 1.746-1.798v0l15.479-16.343 2.327 2.204-5.197 5.487c-0.26 0.275-0.551 0.577-0.872 0.907-0.321 0.32-0.673 0.662-1.056 1.026v0l0.052 0.049c1.283-0.489 2.464-0.591 3.544-0.305 1.089 0.286 2.159 0.927 3.209 1.922v0c1.773 1.679 2.511 3.51 2.216 5.494-0.3 1.979-1.597 4.179-3.89 6.6zM57.502 240.421v0c1.856-1.959 2.925-3.61 3.21-4.953 0.284-1.333-0.158-2.553-1.327-3.659v0c-1.311-1.242-2.692-1.697-4.141-1.366-1.455 0.327-3.106 1.464-4.952 3.414v0c-1.744 1.841-2.738 3.48-2.981 4.917-0.239 1.432 0.302 2.774 1.623 4.025v0c1.173 1.111 2.432 1.479 3.776 1.103 1.344-0.367 2.941-1.527 4.792-3.481z" fill="#d2dbc8" data-fill-palette-color="primary"></path><path d="M64.217 257.572v0c-1.629-1.042-2.582-2.258-2.857-3.646-0.27-1.385 0.076-2.83 1.038-4.334v0c1.079-1.686 2.459-2.626 4.139-2.819 1.687-0.19 3.784 0.473 6.291 1.989v0l3.687 2.274 0.568-0.889c0.845-1.322 1.171-2.446 0.978-3.373-0.196-0.936-0.895-1.789-2.097-2.557v0c-1.213-0.776-2.23-1.133-3.049-1.071-0.809 0.06-1.559 0.504-2.248 1.331v0l-2.665-2.065c2.335-2.633 5.447-2.705 9.339-0.216v0c2.045 1.308 3.283 2.762 3.712 4.361 0.434 1.594 0.082 3.28-1.055 5.057v0l-4.482 7.008c-0.51 0.798-0.789 1.466-0.837 2.005-0.052 0.545 0.219 1.007 0.811 1.386v0c0.279 0.179 0.599 0.331 0.96 0.458v0l-1.077 1.683c-0.396-0.133-0.784-0.293-1.163-0.479-0.373-0.182-0.736-0.387-1.089-0.612v0c-1.003-0.641-1.562-1.373-1.68-2.195-0.12-0.816 0.15-1.803 0.811-2.961v0l-0.094-0.06c-1.484 0.801-2.85 1.167-4.099 1.099-1.245-0.074-2.526-0.532-3.842-1.374zM74.449 254.266l0.852-1.333-3.003-1.837c-1.263-0.8-2.305-1.286-3.126-1.458v0c-0.818-0.178-1.563-0.129-2.237 0.147-0.674 0.275-1.27 0.818-1.787 1.626v0c-0.565 0.883-0.761 1.717-0.589 2.502 0.169 0.79 0.692 1.466 1.569 2.027v0c1.003 0.641 2.03 0.981 3.081 1.02v0c1.061 0.036 2.067-0.195 3.021-0.693 0.947-0.502 1.687-1.169 2.219-2.001z" fill="#d2dbc8" data-fill-palette-color="primary"></path><path d="M88.817 258.05v0l-4.38 10.296-2.949-1.255 5.944-13.974c0.442-1.039 0.787-1.877 1.036-2.514 0.255-0.634 0.413-1.074 0.473-1.32v0l2.791 1.188c-0.062 0.216-0.155 0.485-0.277 0.808-0.116 0.325-0.25 0.684-0.402 1.074-0.149 0.385-0.309 0.787-0.48 1.207v0l0.056 0.024c1.2-0.937 2.353-1.472 3.46-1.604 1.107-0.132 2.323 0.084 3.649 0.648v0c1.948 0.829 3.164 1.934 3.649 3.316 0.476 1.386 0.251 3.168-0.676 5.346v0l-5.034 11.837-2.978-1.267 4.792-11.267c0.72-1.693 0.949-2.992 0.688-3.897-0.264-0.899-1.069-1.634-2.413-2.206v0c-1.425-0.606-2.755-0.599-3.989 0.023-1.237 0.628-2.224 1.806-2.96 3.537z" fill="#d2dbc8" data-fill-palette-color="primary"></path><path d="M117.273 275.024l-0.05-0.011c-1.013 1.137-2.051 1.866-3.114 2.188-1.072 0.326-2.311 0.331-3.716 0.014v0c-2.065-0.466-3.459-1.322-4.183-2.567-0.726-1.239-0.821-3.042-0.287-5.411v0l2.834-12.547 3.146 0.711-2.694 11.934c-0.425 1.88-0.419 3.223 0.015 4.028 0.437 0.799 1.364 1.358 2.783 1.679v0c1.504 0.34 2.808 0.09 3.913-0.75 1.103-0.832 1.862-2.166 2.276-3.999v0l2.465-10.914 3.136 0.708-3.345 14.813c-0.246 1.088-0.435 1.971-0.567 2.649-0.139 0.676-0.219 1.14-0.241 1.391v0l-2.959-0.668c0.007-0.061 0.049-0.339 0.126-0.835 0.084-0.494 0.238-1.298 0.462-2.413z" fill="#d2dbc8" data-fill-palette-color="primary"></path><path d="M132.607 269.96v0l-0.676 10.04-3.198-0.215 0.995-14.777c0.045-0.675 0.083-1.387 0.113-2.138 0.037-0.75 0.063-1.534 0.077-2.354v0l3.026 0.204c-0.01 0.548-0.023 1.042-0.038 1.482-0.009 0.44-0.018 0.822-0.027 1.147-0.008 0.325-0.02 0.599-0.035 0.821-0.008 0.223-0.016 0.385-0.022 0.487v0l0.07 0.004c0.436-1.137 0.891-2.011 1.367-2.622v0c0.452-0.566 0.952-0.946 1.5-1.14 0.549-0.2 1.218-0.274 2.007-0.221v0c0.439 0.03 0.866 0.119 1.284 0.27v0l-0.198 2.935c-0.397-0.142-0.963-0.238-1.699-0.287v0c-1.329-0.089-2.383 0.412-3.162 1.505-0.779 1.1-1.24 2.719-1.384 4.859z" fill="#d2dbc8" data-fill-palette-color="primary"></path><path d="M143.215 269.088l8.916-0.427 0.137 2.857-8.916 0.427z" fill="#d2dbc8" data-fill-palette-color="primary"></path><path d="M170.207 265.807l-7.653 1.662 2.216 10.201-3.331 0.723-5.338-24.575 11.559-2.51c2.769-0.601 5.039-0.444 6.809 0.472 1.775 0.909 2.903 2.466 3.382 4.674v0c0.396 1.824 0.198 3.476-0.595 4.957-0.794 1.474-2.091 2.575-3.891 3.305v0l9.278 9.071-3.836 0.834zM174.509 257.222v0c-0.311-1.434-1.031-2.42-2.158-2.957-1.134-0.536-2.616-0.605-4.447-0.207v0l-7.891 1.714 1.969 9.06 8.039-1.746c1.751-0.38 3.017-1.084 3.797-2.112 0.78-1.028 1.01-2.278 0.691-3.752z" fill="#d2dbc8" data-fill-palette-color="primary"></path><path d="M195.488 268.645v0c-1.758 0.806-3.296 0.95-4.612 0.431-1.311-0.522-2.339-1.595-3.083-3.217v0c-0.835-1.82-0.878-3.488-0.132-5.007 0.753-1.521 2.445-2.926 5.076-4.214v0l3.907-1.871-0.44-0.959c-0.654-1.426-1.423-2.308-2.307-2.647-0.893-0.342-1.989-0.215-3.286 0.38v0c-1.309 0.601-2.159 1.262-2.549 1.984-0.387 0.713-0.419 1.584-0.097 2.612v0l-3.179 1.123c-0.951-3.388 0.672-6.045 4.87-7.971v0c2.207-1.012 4.099-1.266 5.677-0.762 1.575 0.498 2.802 1.706 3.682 3.623v0l3.469 7.561c0.395 0.861 0.806 1.457 1.233 1.789 0.43 0.338 0.965 0.361 1.605 0.068v0c0.301-0.138 0.603-0.325 0.904-0.56v0l0.833 1.816c-0.327 0.261-0.67 0.501-1.032 0.719-0.355 0.215-0.723 0.41-1.104 0.585v0c-1.082 0.496-2 0.571-2.754 0.225-0.751-0.34-1.435-1.101-2.052-2.284v0l-0.102 0.047c-0.129 1.681-0.56 3.029-1.293 4.042-0.736 1.007-1.814 1.836-3.234 2.487zM198.243 258.252l-0.66-1.438-3.17 1.532c-1.356 0.629-2.328 1.243-2.917 1.84v0c-0.592 0.591-0.954 1.245-1.087 1.961-0.133 0.716 0.001 1.51 0.401 2.383v0c0.437 0.953 1.032 1.569 1.786 1.848 0.756 0.286 1.607 0.211 2.554-0.222v0c1.082-0.496 1.923-1.176 2.524-2.04v0c0.604-0.872 0.955-1.844 1.051-2.915 0.09-1.068-0.07-2.051-0.482-2.949z" fill="#d2dbc8" data-fill-palette-color="primary"></path><path d="M206.376 244.31l0.051-0.035c-0.136-1.428 0.029-2.66 0.494-3.695 0.47-1.03 1.32-1.963 2.551-2.799v0c1.734-1.178 3.319-1.595 4.753-1.253 1.434 0.342 2.814 1.49 4.14 3.443v0l7.225 10.641-2.677 1.818-6.878-10.13c-0.98-1.444-1.94-2.316-2.881-2.617-0.942-0.292-2.004-0.037-3.184 0.764v0c-1.248 0.847-1.955 1.961-2.121 3.341-0.166 1.38 0.248 2.803 1.243 4.269v0l6.394 9.416-2.652 1.801-14.879-21.913 2.652-1.801 3.87 5.699c0.27 0.397 0.544 0.82 0.823 1.267 0.274 0.452 0.515 0.843 0.725 1.176 0.2 0.33 0.317 0.533 0.351 0.608z" fill="#d2dbc8" data-fill-palette-color="primary"></path><path d="M226.724 234.028v0l8.154 7.662-2.188 2.328-11.067-10.399c-0.823-0.773-1.49-1.387-2.002-1.839-0.507-0.458-0.866-0.758-1.076-0.9v0l2.077-2.21c0.206 0.156 0.456 0.359 0.751 0.608 0.295 0.24 0.597 0.496 0.907 0.769 0.3 0.273 0.581 0.532 0.842 0.777v0l0.042-0.044c-0.523-1.438-0.674-2.665-0.452-3.682 0.217-1.021 0.765-2 1.646-2.936v0c1-1.065 2.007-1.706 3.018-1.924 1.003-0.218 2.083-0.015 3.242 0.609v0l0.034-0.037c-0.488-1.377-0.617-2.603-0.387-3.676 0.229-1.084 0.805-2.116 1.727-3.097v0c1.338-1.424 2.698-2.096 4.078-2.014 1.38 0.081 2.95 0.949 4.71 2.602v0l9.374 8.808-2.175 2.314-8.922-8.384c-1.36-1.278-2.478-1.975-3.352-2.092-0.869-0.112-1.76 0.318-2.673 1.289v0c-0.959 1.02-1.327 2.173-1.105 3.457 0.226 1.28 1.037 2.575 2.431 3.886v0l8.155 7.662-2.175 2.314-8.923-8.384c-1.36-1.278-2.478-1.975-3.352-2.092-0.865-0.117-1.753 0.311-2.665 1.281v0c-0.94 1-1.299 2.148-1.077 3.443 0.217 1.299 1.019 2.6 2.403 3.901z" fill="#d2dbc8" data-fill-palette-color="primary"></path><path d="M258.172 213.132v0c-0.965 1.677-2.134 2.685-3.508 3.026-1.371 0.335-2.83 0.057-4.378-0.834v0c-1.735-0.998-2.739-2.332-3.011-4.002-0.269-1.676 0.295-3.802 1.692-6.377v0l2.098-3.79-0.914-0.526c-1.36-0.782-2.498-1.055-3.415-0.818-0.926 0.24-1.745 0.978-2.457 2.215v0c-0.718 1.249-1.027 2.28-0.926 3.095 0.098 0.806 0.577 1.533 1.435 2.183v0l-1.938 2.759c-2.74-2.208-2.958-5.314-0.654-9.318v0c1.211-2.104 2.605-3.409 4.182-3.913 1.572-0.508 3.272-0.236 5.101 0.816v0l7.21 4.149c0.821 0.472 1.501 0.72 2.043 0.742 0.547 0.026 0.996-0.266 1.346-0.876v0c0.165-0.287 0.303-0.614 0.412-0.98v0l1.732 0.997c-0.114 0.402-0.256 0.797-0.423 1.184-0.165 0.381-0.352 0.753-0.561 1.117v0c-0.594 1.032-1.298 1.625-2.113 1.78-0.809 0.159-1.808-0.065-2.996-0.671v0l-0.056 0.097c0.87 1.445 1.3 2.792 1.29 4.043-0.015 1.247-0.413 2.548-1.191 3.902zM254.389 203.067l-1.372-0.789-1.694 3.087c-0.739 1.299-1.176 2.362-1.309 3.19v0c-0.139 0.825-0.055 1.568 0.251 2.228 0.307 0.66 0.876 1.23 1.709 1.709v0c0.909 0.523 1.751 0.68 2.527 0.471 0.782-0.206 1.432-0.76 1.951-1.663v0c0.594-1.032 0.885-2.074 0.874-3.126v0c-0.014-1.061-0.292-2.056-0.835-2.984-0.546-0.923-1.247-1.63-2.102-2.123z" fill="#d2dbc8" data-fill-palette-color="primary"></path><path d="M257.491 188.536v0l10.491 3.89-1.114 3.006-14.239-5.28c-1.059-0.393-1.912-0.698-2.559-0.916-0.645-0.225-1.092-0.362-1.341-0.411v0l1.054-2.844c0.219 0.052 0.492 0.132 0.82 0.239 0.33 0.101 0.695 0.218 1.093 0.351 0.392 0.131 0.801 0.272 1.228 0.423v0l0.021-0.057c-0.993-1.154-1.581-2.281-1.765-3.381-0.184-1.1-0.025-2.325 0.475-3.675v0c0.736-1.985 1.783-3.252 3.141-3.802 1.362-0.541 3.152-0.4 5.372 0.423v0l12.06 4.472-1.125 3.034-11.48-4.256c-1.725-0.639-3.033-0.807-3.925-0.503-0.885 0.306-1.582 1.145-2.09 2.514v0c-0.538 1.452-0.468 2.78 0.211 3.984 0.685 1.206 1.909 2.136 3.672 2.789z" fill="#d2dbc8" data-fill-palette-color="primary"></path><path d="M2.063 142.05c0-5.587 4.529-10.116 10.117-10.117 5.587 0 10.116 4.529 10.116 10.117 0 5.587-4.529 10.116-10.116 10.116-5.587 0-10.116-4.529-10.117-10.116z" fill="#d2dbc8" data-fill-palette-color="primary"></path><path d="M257.704 142.05c0-5.587 4.529-10.116 10.116-10.117 5.587 0 10.116 4.529 10.117 10.117 0 5.587-4.529 10.116-10.117 10.116-5.587 0-10.116-4.529-10.116-10.116z" fill="#d2dbc8" data-fill-palette-color="primary"></path></g><g id="text-1"></g></svg></g></svg></g></svg></g></svg></g><defs></defs></svg><rect width="280" height="280" fill="none" stroke="none" visibility="hidden"></rect></g></svg></g></svg>